{
	"asset":{
		"generator":"Khronos glTF Blender I/O v4.4.56",
		"version":"2.0"
	},
	"extensionsUsed":[
		"KHR_materials_transmission",
		"KHR_materials_ior"
	],
	"scene":0,
	"scenes":[
		{
			"name":"Scene",
			"nodes":[
				2,
				3
			]
		}
	],
	"nodes":[
		{
			"name":"Bone.001",
			"rotation":[
				-3.5527119847346064e-15,
				7.105427357601002e-15,
				-4.235165241142481e-22,
				1
			],
			"translation":[
				0,
				0.7530792355537415,
				0
			]
		},
		{
			"children":[
				0
			],
			"name":"Bone",
			"rotation":[
				-2.980232594040899e-08,
				1.1920927533992653e-07,
				0,
				1
			],
			"scale":[
				1,
				0.9999999403953552,
				0.9999999403953552
			]
		},
		{
			"mesh":0,
			"name":"slime_creep",
			"skin":0
		},
		{
			"children":[
				1
			],
			"name":"Armature"
		}
	],
	"animations":[
		{
			"channels":[
				{
					"sampler":0,
					"target":{
						"node":1,
						"path":"translation"
					}
				},
				{
					"sampler":1,
					"target":{
						"node":1,
						"path":"rotation"
					}
				},
				{
					"sampler":2,
					"target":{
						"node":1,
						"path":"scale"
					}
				},
				{
					"sampler":3,
					"target":{
						"node":0,
						"path":"translation"
					}
				},
				{
					"sampler":4,
					"target":{
						"node":0,
						"path":"rotation"
					}
				},
				{
					"sampler":5,
					"target":{
						"node":0,
						"path":"scale"
					}
				}
			],
			"name":"attack",
			"samplers":[
				{
					"input":7,
					"interpolation":"STEP",
					"output":8
				},
				{
					"input":7,
					"interpolation":"STEP",
					"output":9
				},
				{
					"input":7,
					"interpolation":"STEP",
					"output":10
				},
				{
					"input":7,
					"interpolation":"STEP",
					"output":11
				},
				{
					"input":12,
					"interpolation":"LINEAR",
					"output":13
				},
				{
					"input":7,
					"interpolation":"STEP",
					"output":14
				}
			]
		}
	],
	"materials":[
		{
			"alphaMode":"BLEND",
			"doubleSided":true,
			"extensions":{
				"KHR_materials_transmission":{
					"transmissionFactor":0.7165354490280151
				},
				"KHR_materials_ior":{
					"ior":34.54999923706055
				}
			},
			"name":"Material",
			"pbrMetallicRoughness":{
				"baseColorFactor":[
					1,
					1,
					1,
					0.6363636255264282
				],
				"baseColorTexture":{
					"index":0
				}
			}
		}
	],
	"meshes":[
		{
			"name":"Cube",
			"primitives":[
				{
					"attributes":{
						"POSITION":0,
						"NORMAL":1,
						"TEXCOORD_0":2,
						"JOINTS_0":3,
						"WEIGHTS_0":4
					},
					"indices":5,
					"material":0
				}
			]
		}
	],
	"textures":[
		{
			"sampler":0,
			"source":0
		}
	],
	"images":[
		{
			"mimeType":"image/png",
			"name":"Ucupaint Material Color",
			"uri":"Ucupaint%20Material%20Color.png"
		}
	],
	"skins":[
		{
			"inverseBindMatrices":6,
			"joints":[
				1,
				0
			],
			"name":"Armature"
		}
	],
	"accessors":[
		{
			"bufferView":0,
			"componentType":5126,
			"count":8972,
			"max":[
				1.2594292163848877,
				2.619337558746338,
				1.2789877653121948
			],
			"min":[
				-1.2594292163848877,
				-1.1920928955078125e-07,
				-1.1116812229156494
			],
			"type":"VEC3"
		},
		{
			"bufferView":1,
			"componentType":5126,
			"count":8972,
			"type":"VEC3"
		},
		{
			"bufferView":2,
			"componentType":5126,
			"count":8972,
			"type":"VEC2"
		},
		{
			"bufferView":3,
			"componentType":5121,
			"count":8972,
			"type":"VEC4"
		},
		{
			"bufferView":4,
			"componentType":5126,
			"count":8972,
			"type":"VEC4"
		},
		{
			"bufferView":5,
			"componentType":5123,
			"count":13968,
			"type":"SCALAR"
		},
		{
			"bufferView":6,
			"componentType":5126,
			"count":2,
			"type":"MAT4"
		},
		{
			"bufferView":7,
			"componentType":5126,
			"count":2,
			"max":[
				1.4166666666666667
			],
			"min":[
				0.041666666666666664
			],
			"type":"SCALAR"
		},
		{
			"bufferView":8,
			"componentType":5126,
			"count":2,
			"type":"VEC3"
		},
		{
			"bufferView":9,
			"componentType":5126,
			"count":2,
			"type":"VEC4"
		},
		{
			"bufferView":10,
			"componentType":5126,
			"count":2,
			"type":"VEC3"
		},
		{
			"bufferView":11,
			"componentType":5126,
			"count":2,
			"type":"VEC3"
		},
		{
			"bufferView":12,
			"componentType":5126,
			"count":34,
			"max":[
				1.4166666666666667
			],
			"min":[
				0.041666666666666664
			],
			"type":"SCALAR"
		},
		{
			"bufferView":13,
			"componentType":5126,
			"count":34,
			"type":"VEC4"
		},
		{
			"bufferView":14,
			"componentType":5126,
			"count":2,
			"type":"VEC3"
		}
	],
	"bufferViews":[
		{
			"buffer":0,
			"byteLength":107664,
			"byteOffset":0,
			"target":34962
		},
		{
			"buffer":0,
			"byteLength":107664,
			"byteOffset":107664,
			"target":34962
		},
		{
			"buffer":0,
			"byteLength":71776,
			"byteOffset":215328,
			"target":34962
		},
		{
			"buffer":0,
			"byteLength":35888,
			"byteOffset":287104,
			"target":34962
		},
		{
			"buffer":0,
			"byteLength":143552,
			"byteOffset":322992,
			"target":34962
		},
		{
			"buffer":0,
			"byteLength":27936,
			"byteOffset":466544,
			"target":34963
		},
		{
			"buffer":0,
			"byteLength":128,
			"byteOffset":494480
		},
		{
			"buffer":0,
			"byteLength":8,
			"byteOffset":494608
		},
		{
			"buffer":0,
			"byteLength":24,
			"byteOffset":494616
		},
		{
			"buffer":0,
			"byteLength":32,
			"byteOffset":494640
		},
		{
			"buffer":0,
			"byteLength":24,
			"byteOffset":494672
		},
		{
			"buffer":0,
			"byteLength":24,
			"byteOffset":494696
		},
		{
			"buffer":0,
			"byteLength":136,
			"byteOffset":494720
		},
		{
			"buffer":0,
			"byteLength":544,
			"byteOffset":494856
		},
		{
			"buffer":0,
			"byteLength":24,
			"byteOffset":495400
		}
	],
	"samplers":[
		{
			"magFilter":9729,
			"minFilter":9987
		}
	],
	"buffers":[
		{
			"byteLength":495424,
			"uri":"gooper.bin"
		}
	]
}
