{
	"asset":{
		"generator":"Khronos glTF Blender I/O v4.4.56",
		"version":"2.0"
	},
	"scene":0,
	"scenes":[
		{
			"name":"Scene",
			"nodes":[
				0,
				1,
				2,
				3,
				4,
				5,
				6,
				7,
				8,
				9,
				10,
				11,
				12,
				13,
				14
			]
		}
	],
	"nodes":[
		{
			"extras":{
				"skein":[
					{
						"avian3d::dynamics::rigid_body::RigidBody":"Static"
					},
					{
						"avian3d::collision::collider::constructor::ColliderConstructor":{
							"Cuboid":{
								"x_length":0.0,
								"y_length":0.0,
								"z_length":0.0
							}
						}
					}
				]
			},
			"mesh":0,
			"name":"Ground",
			"scale":[
				12.591970443725586,
				12.591970443725586,
				12.591970443725586
			]
		},
		{
			"extras":{
				"skein":[
					{
						"avian3d::dynamics::rigid_body::RigidBody":"Static"
					}
				]
			},
			"mesh":1,
			"name":"Static_Platform"
		},
		{
			"extras":{
				"skein":[
					{
						"avian3d::dynamics::rigid_body::RigidBody":"Static"
					}
				]
			},
			"mesh":2,
			"name":"Static_Platform.001"
		},
		{
			"extras":{
				"skein":[
					{
						"avian3d::dynamics::rigid_body::RigidBody":"Static"
					}
				]
			},
			"mesh":3,
			"name":"Static_Platform.002",
			"translation":[
				0,
				2.2976512908935547,
				0
			]
		},
		{
			"extras":{
				"skein":[
					{
						"avian3d::dynamics::rigid_body::RigidBody":"Static"
					}
				]
			},
			"mesh":4,
			"name":"Static_Platform.003",
			"translation":[
				0,
				4.706386566162109,
				-7.505519390106201
			]
		},
		{
			"extras":{
				"skein":[
					{
						"avian3d::dynamics::rigid_body::RigidBody":"Static"
					}
				]
			},
			"mesh":5,
			"name":"Static_Platform.004",
			"translation":[
				0,
				4.706386566162109,
				-7.505519390106201
			]
		},
		{
			"extras":{
				"skein":[
					{
						"procedural_rpg::gameplay::moving_platforms::PlatformGroup":"a"
					},
					{
						"procedural_rpg::gameplay::moving_platforms::PlatformWaypoint":{
							"index":1
						}
					}
				]
			},
			"mesh":6,
			"name":"platform_waypoint",
			"translation":[
				2.9732606410980225,
				13.967977523803711,
				-27.99251365661621
			]
		},
		{
			"extras":{
				"skein":[
					{
						"procedural_rpg::gameplay::moving_platforms::PlatformGroup":"a"
					},
					{
						"procedural_rpg::gameplay::moving_platforms::PlatformWaypoint":{
							"index":2
						}
					}
				]
			},
			"mesh":7,
			"name":"platform_waypoint.001",
			"translation":[
				14.915545463562012,
				3.9255943298339844,
				-26.208850860595703
			]
		},
		{
			"extras":{
				"skein":[
					{
						"procedural_rpg::gameplay::moving_platforms::PlatformGroup":"a"
					},
					{
						"procedural_rpg::gameplay::moving_platforms::PlatformWaypoint":{
							"index":3
						}
					}
				]
			},
			"mesh":8,
			"name":"platform_waypoint.002",
			"translation":[
				-8.733057975769043,
				4.731390953063965,
				-23.078380584716797
			]
		},
		{
			"extras":{
				"skein":[
					{
						"avian3d::dynamics::rigid_body::RigidBody":"Kinematic"
					},
					{
						"procedural_rpg::gameplay::moving_platforms::MovingPlatform":{
							"current_leg":0,
							"speed":3.0
						}
					},
					{
						"procedural_rpg::gameplay::moving_platforms::PlatformGroup":"a"
					}
				]
			},
			"mesh":9,
			"name":"Moving_platform.001"
		},
		{
			"extras":{
				"skein":[
					{
						"avian3d::dynamics::rigid_body::RigidBody":"Kinematic"
					},
					{
						"procedural_rpg::gameplay::moving_platforms::MovingPlatform":{
							"current_leg":0,
							"speed":3.0
						}
					},
					{
						"procedural_rpg::gameplay::moving_platforms::PlatformGroup":"b"
					}
				]
			},
			"mesh":10,
			"name":"Moving_platform.002",
			"translation":[
				-9.084684371948242,
				10.581964492797852,
				-21.282695770263672
			]
		},
		{
			"extras":{
				"skein":[
					{
						"procedural_rpg::gameplay::moving_platforms::PlatformGroup":"b"
					},
					{
						"procedural_rpg::gameplay::moving_platforms::PlatformWaypoint":{
							"index":1
						}
					}
				]
			},
			"mesh":11,
			"name":"platform_waypoint.003",
			"translation":[
				-0.24433493614196777,
				8.505470275878906,
				-29.455089569091797
			]
		},
		{
			"extras":{
				"skein":[
					{
						"procedural_rpg::gameplay::moving_platforms::PlatformGroup":"b"
					},
					{
						"procedural_rpg::gameplay::moving_platforms::PlatformWaypoint":{
							"index":2
						}
					}
				]
			},
			"mesh":12,
			"name":"platform_waypoint.004",
			"translation":[
				-0.24433493614196777,
				17.21436309814453,
				-29.455089569091797
			]
		},
		{
			"extras":{
				"skein":[
					{
						"procedural_rpg::gameplay::moving_platforms::PlatformGroup":"b"
					},
					{
						"procedural_rpg::gameplay::moving_platforms::PlatformWaypoint":{
							"index":3
						}
					}
				]
			},
			"mesh":13,
			"name":"platform_waypoint.005",
			"translation":[
				-0.24433493614196777,
				17.21436309814453,
				-43.40400695800781
			]
		},
		{
			"extras":{
				"skein":[
					{
						"procedural_rpg::gameplay::moving_platforms::PlatformGroup":"b"
					},
					{
						"procedural_rpg::gameplay::moving_platforms::PlatformWaypoint":{
							"index":4
						}
					}
				]
			},
			"mesh":14,
			"name":"platform_waypoint.006",
			"translation":[
				-0.24433493614196777,
				23.905014038085938,
				-43.40400695800781
			]
		}
	],
	"materials":[
		{
			"doubleSided":true,
			"name":"Poliigon_GrassPatchyGround_4585_2K",
			"normalTexture":{
				"index":0
			},
			"pbrMetallicRoughness":{
				"baseColorTexture":{
					"index":1
				},
				"metallicRoughnessTexture":{
					"index":2
				}
			}
		},
		{
			"doubleSided":true,
			"name":"Poliigon_ConcreteFloorPoured_7656_2K",
			"normalTexture":{
				"index":3
			},
			"pbrMetallicRoughness":{
				"baseColorTexture":{
					"index":4
				},
				"metallicRoughnessTexture":{
					"index":5
				}
			}
		},
		{
			"doubleSided":true,
			"name":"Poliigon_ConcreteFloorPoured_7656_2K.008",
			"normalTexture":{
				"index":6
			},
			"pbrMetallicRoughness":{
				"baseColorTexture":{
					"index":7
				},
				"metallicRoughnessTexture":{
					"index":8
				}
			}
		},
		{
			"doubleSided":true,
			"name":"Poliigon_ConcreteFloorPoured_7656_2K.009",
			"normalTexture":{
				"index":9
			},
			"pbrMetallicRoughness":{
				"baseColorTexture":{
					"index":10
				},
				"metallicRoughnessTexture":{
					"index":11
				}
			}
		},
		{
			"doubleSided":true,
			"emissiveFactor":[
				1,
				1,
				1
			],
			"emissiveTexture":{
				"index":12
			},
			"name":"Poliigon_ConcreteFloorPoured_7656_2K.011",
			"pbrMetallicRoughness":{
				"baseColorFactor":[
					0,
					0,
					0,
					1
				]
			}
		},
		{
			"doubleSided":true,
			"name":"Poliigon_ConcreteFloorPoured_7656_2K.012",
			"normalTexture":{
				"index":13
			},
			"pbrMetallicRoughness":{
				"baseColorTexture":{
					"index":14
				},
				"metallicRoughnessTexture":{
					"index":15
				}
			}
		},
		{
			"alphaMode":"MASK",
			"doubleSided":true,
			"name":"Material.001",
			"pbrMetallicRoughness":{
				"baseColorFactor":[
					0.800000011920929,
					0.800000011920929,
					0.800000011920929,
					0
				],
				"metallicFactor":0,
				"roughnessFactor":0.5
			}
		},
		{
			"alphaMode":"MASK",
			"doubleSided":true,
			"name":"Material",
			"pbrMetallicRoughness":{
				"baseColorFactor":[
					0.800000011920929,
					0.800000011920929,
					0.800000011920929,
					0
				],
				"metallicFactor":0,
				"roughnessFactor":0.5
			}
		},
		{
			"doubleSided":true,
			"name":"Poliigon_BrickWallReclaimed_8320_2K.002",
			"normalTexture":{
				"index":16
			},
			"pbrMetallicRoughness":{
				"baseColorTexture":{
					"index":17
				},
				"metallicRoughnessTexture":{
					"index":18
				}
			}
		},
		{
			"doubleSided":true,
			"name":"Poliigon_BrickWallReclaimed_8320_2K.003",
			"normalTexture":{
				"index":19
			},
			"pbrMetallicRoughness":{
				"baseColorTexture":{
					"index":20
				},
				"metallicRoughnessTexture":{
					"index":21
				}
			}
		},
		{
			"alphaMode":"MASK",
			"doubleSided":true,
			"name":"Material.002",
			"pbrMetallicRoughness":{
				"baseColorFactor":[
					0.800000011920929,
					0.800000011920929,
					0.800000011920929,
					0
				],
				"metallicFactor":0,
				"roughnessFactor":0.5
			}
		},
		{
			"alphaMode":"MASK",
			"doubleSided":true,
			"name":"Material.003",
			"pbrMetallicRoughness":{
				"baseColorFactor":[
					0.800000011920929,
					0.800000011920929,
					0.800000011920929,
					0
				],
				"metallicFactor":0,
				"roughnessFactor":0.5
			}
		},
		{
			"alphaMode":"MASK",
			"doubleSided":true,
			"name":"Material.004",
			"pbrMetallicRoughness":{
				"baseColorFactor":[
					0.800000011920929,
					0.800000011920929,
					0.800000011920929,
					0
				],
				"metallicFactor":0,
				"roughnessFactor":0.5
			}
		},
		{
			"alphaMode":"MASK",
			"doubleSided":true,
			"name":"Material.005",
			"pbrMetallicRoughness":{
				"baseColorFactor":[
					0.800000011920929,
					0.800000011920929,
					0.800000011920929,
					0
				],
				"metallicFactor":0,
				"roughnessFactor":0.5
			}
		}
	],
	"meshes":[
		{
			"extras":{
				"skein":[
					{
						"avian3d::collision::collider::constructor::ColliderConstructor":"TrimeshFromMesh"
					}
				]
			},
			"name":"Plane.001",
			"primitives":[
				{
					"attributes":{
						"POSITION":0,
						"NORMAL":1,
						"TEXCOORD_0":2
					},
					"indices":3,
					"material":0
				}
			]
		},
		{
			"extras":{
				"skein":[
					{
						"avian3d::collision::collider::constructor::ColliderConstructor":"TrimeshFromMesh"
					}
				]
			},
			"name":"Cube",
			"primitives":[
				{
					"attributes":{
						"POSITION":4,
						"NORMAL":5,
						"TEXCOORD_0":6
					},
					"indices":7,
					"material":1
				}
			]
		},
		{
			"extras":{
				"skein":[
					{
						"avian3d::collision::collider::constructor::ColliderConstructor":"TrimeshFromMesh"
					}
				]
			},
			"name":"Cube.020",
			"primitives":[
				{
					"attributes":{
						"POSITION":8,
						"NORMAL":9,
						"TEXCOORD_0":10
					},
					"indices":7,
					"material":2
				}
			]
		},
		{
			"extras":{
				"skein":[
					{
						"avian3d::collision::collider::constructor::ColliderConstructor":"TrimeshFromMesh"
					}
				]
			},
			"name":"Cube.001",
			"primitives":[
				{
					"attributes":{
						"POSITION":11,
						"NORMAL":12,
						"TEXCOORD_0":13
					},
					"indices":7,
					"material":3
				}
			]
		},
		{
			"extras":{
				"skein":[
					{
						"avian3d::collision::collider::constructor::ColliderConstructor":"TrimeshFromMesh"
					}
				]
			},
			"name":"Cube.002",
			"primitives":[
				{
					"attributes":{
						"POSITION":14,
						"NORMAL":15,
						"TEXCOORD_0":16
					},
					"indices":7,
					"material":4
				}
			]
		},
		{
			"extras":{
				"skein":[
					{
						"avian3d::collision::collider::constructor::ColliderConstructor":"TrimeshFromMesh"
					}
				]
			},
			"name":"Cube.003",
			"primitives":[
				{
					"attributes":{
						"POSITION":17,
						"NORMAL":18,
						"TEXCOORD_0":19
					},
					"indices":7,
					"material":5
				}
			]
		},
		{
			"name":"Plane",
			"primitives":[
				{
					"attributes":{
						"POSITION":20,
						"NORMAL":21,
						"TEXCOORD_0":22
					},
					"indices":3,
					"material":6
				}
			]
		},
		{
			"name":"Plane.002",
			"primitives":[
				{
					"attributes":{
						"POSITION":23,
						"NORMAL":24,
						"TEXCOORD_0":25
					},
					"indices":3,
					"material":7
				}
			]
		},
		{
			"name":"Plane.003",
			"primitives":[
				{
					"attributes":{
						"POSITION":26,
						"NORMAL":27,
						"TEXCOORD_0":28
					},
					"indices":3,
					"material":7
				}
			]
		},
		{
			"extras":{
				"skein":[
					{
						"avian3d::collision::collider::constructor::ColliderConstructor":"TrimeshFromMesh"
					}
				]
			},
			"name":"Cube.005",
			"primitives":[
				{
					"attributes":{
						"POSITION":29,
						"NORMAL":30,
						"TEXCOORD_0":31
					},
					"indices":7,
					"material":8
				}
			]
		},
		{
			"extras":{
				"skein":[
					{
						"avian3d::collision::collider::constructor::ColliderConstructor":"TrimeshFromMesh"
					}
				]
			},
			"name":"Cube.006",
			"primitives":[
				{
					"attributes":{
						"POSITION":32,
						"NORMAL":33,
						"TEXCOORD_0":34
					},
					"indices":7,
					"material":9
				}
			]
		},
		{
			"name":"Plane.004",
			"primitives":[
				{
					"attributes":{
						"POSITION":35,
						"NORMAL":36,
						"TEXCOORD_0":37
					},
					"indices":3,
					"material":10
				}
			]
		},
		{
			"name":"Plane.005",
			"primitives":[
				{
					"attributes":{
						"POSITION":38,
						"NORMAL":39,
						"TEXCOORD_0":40
					},
					"indices":3,
					"material":11
				}
			]
		},
		{
			"name":"Plane.007",
			"primitives":[
				{
					"attributes":{
						"POSITION":41,
						"NORMAL":42,
						"TEXCOORD_0":43
					},
					"indices":3,
					"material":12
				}
			]
		},
		{
			"name":"Plane.008",
			"primitives":[
				{
					"attributes":{
						"POSITION":44,
						"NORMAL":45,
						"TEXCOORD_0":46
					},
					"indices":3,
					"material":13
				}
			]
		}
	],
	"textures":[
		{
			"sampler":0,
			"source":0
		},
		{
			"sampler":0,
			"source":1
		},
		{
			"sampler":0,
			"source":2
		},
		{
			"sampler":0,
			"source":3
		},
		{
			"sampler":0,
			"source":4
		},
		{
			"sampler":0,
			"source":5
		},
		{
			"sampler":0,
			"source":3
		},
		{
			"sampler":0,
			"source":4
		},
		{
			"sampler":0,
			"source":5
		},
		{
			"sampler":0,
			"source":3
		},
		{
			"sampler":0,
			"source":4
		},
		{
			"sampler":0,
			"source":5
		},
		{
			"sampler":0,
			"source":4
		},
		{
			"sampler":0,
			"source":3
		},
		{
			"sampler":0,
			"source":4
		},
		{
			"sampler":0,
			"source":5
		},
		{
			"sampler":0,
			"source":6
		},
		{
			"sampler":0,
			"source":7
		},
		{
			"sampler":0,
			"source":8
		},
		{
			"sampler":0,
			"source":6
		},
		{
			"sampler":0,
			"source":7
		},
		{
			"sampler":0,
			"source":8
		}
	],
	"images":[
		{
			"mimeType":"image/png",
			"name":"Poliigon_GrassPatchyGround_4585_Normal",
			"uri":"Poliigon_GrassPatchyGround_4585_Normal.png"
		},
		{
			"mimeType":"image/jpeg",
			"name":"Poliigon_GrassPatchyGround_4585_BaseColor",
			"uri":"Poliigon_GrassPatchyGround_4585_BaseColor.jpg"
		},
		{
			"mimeType":"image/png",
			"name":"Poliigon_GrassPatchyGround_4585_Metallic_2K_jpg-Poliigon_GrassPatchyGround_4585_Roughness_2K_jpg",
			"uri":"Poliigon_GrassPatchyGround_4585_Metallic_2K_jpg-Poliigon_GrassPatchyGround_4585_Roughness_2K_jpg.png"
		},
		{
			"mimeType":"image/png",
			"name":"Poliigon_ConcreteFloorPoured_7656_Normal",
			"uri":"Poliigon_ConcreteFloorPoured_7656_Normal.png"
		},
		{
			"mimeType":"image/jpeg",
			"name":"Poliigon_ConcreteFloorPoured_7656_BaseColor",
			"uri":"Poliigon_ConcreteFloorPoured_7656_BaseColor.jpg"
		},
		{
			"mimeType":"image/png",
			"name":"Poliigon_ConcreteFloorPoured_7656_Metallic_2K_jpg-Poliigon_ConcreteFloorPoured_7656_Roughness_2K_jpg",
			"uri":"Poliigon_ConcreteFloorPoured_7656_Metallic_2K_jpg-Poliigon_ConcreteFloorPoured_7656_Roughness_2K_jpg.png"
		},
		{
			"mimeType":"image/png",
			"name":"Poliigon_BrickWallReclaimed_8320_Normal",
			"uri":"Poliigon_BrickWallReclaimed_8320_Normal.png"
		},
		{
			"mimeType":"image/jpeg",
			"name":"Poliigon_BrickWallReclaimed_8320_BaseColor",
			"uri":"Poliigon_BrickWallReclaimed_8320_BaseColor.jpg"
		},
		{
			"mimeType":"image/png",
			"name":"Poliigon_BrickWallReclaimed_8320_Metallic_2K_jpg-Poliigon_BrickWallReclaimed_8320_Roughness_2K_jpg",
			"uri":"Poliigon_BrickWallReclaimed_8320_Metallic_2K_jpg-Poliigon_BrickWallReclaimed_8320_Roughness_2K_jpg.png"
		}
	],
	"accessors":[
		{
			"bufferView":0,
			"componentType":5126,
			"count":4,
			"max":[
				53.33803176879883,
				0,
				53.33803176879883
			],
			"min":[
				-53.33803176879883,
				0,
				-53.33803176879883
			],
			"type":"VEC3"
		},
		{
			"bufferView":1,
			"componentType":5126,
			"count":4,
			"type":"VEC3"
		},
		{
			"bufferView":2,
			"componentType":5126,
			"count":4,
			"type":"VEC2"
		},
		{
			"bufferView":3,
			"componentType":5123,
			"count":6,
			"type":"SCALAR"
		},
		{
			"bufferView":4,
			"componentType":5126,
			"count":24,
			"max":[
				1.5664615631103516,
				4.440217971801758,
				5.404836654663086
			],
			"min":[
				-0.4335384964942932,
				3.8539962768554688,
				3.404836654663086
			],
			"type":"VEC3"
		},
		{
			"bufferView":5,
			"componentType":5126,
			"count":24,
			"type":"VEC3"
		},
		{
			"bufferView":6,
			"componentType":5126,
			"count":24,
			"type":"VEC2"
		},
		{
			"bufferView":7,
			"componentType":5123,
			"count":36,
			"type":"SCALAR"
		},
		{
			"bufferView":8,
			"componentType":5126,
			"count":24,
			"max":[
				1.5664615631103516,
				4.440217971801758,
				-0.5951633453369141
			],
			"min":[
				-0.4335384964942932,
				3.8539962768554688,
				-2.595163345336914
			],
			"type":"VEC3"
		},
		{
			"bufferView":9,
			"componentType":5126,
			"count":24,
			"type":"VEC3"
		},
		{
			"bufferView":10,
			"componentType":5126,
			"count":24,
			"type":"VEC2"
		},
		{
			"bufferView":11,
			"componentType":5126,
			"count":24,
			"max":[
				1.5664615631103516,
				4.440217971801758,
				-8.595163345336914
			],
			"min":[
				-0.4335384964942932,
				3.8539962768554688,
				-10.595163345336914
			],
			"type":"VEC3"
		},
		{
			"bufferView":12,
			"componentType":5126,
			"count":24,
			"type":"VEC3"
		},
		{
			"bufferView":13,
			"componentType":5126,
			"count":24,
			"type":"VEC2"
		},
		{
			"bufferView":14,
			"componentType":5126,
			"count":24,
			"max":[
				1.5664615631103516,
				4.440217971801758,
				-8.595163345336914
			],
			"min":[
				-0.4335384964942932,
				3.8539962768554688,
				-10.595163345336914
			],
			"type":"VEC3"
		},
		{
			"bufferView":15,
			"componentType":5126,
			"count":24,
			"type":"VEC3"
		},
		{
			"bufferView":16,
			"componentType":5126,
			"count":24,
			"type":"VEC2"
		},
		{
			"bufferView":17,
			"componentType":5126,
			"count":24,
			"max":[
				1.5664615631103516,
				4.440217971801758,
				-8.595163345336914
			],
			"min":[
				-0.4335384964942932,
				3.8539962768554688,
				-10.595163345336914
			],
			"type":"VEC3"
		},
		{
			"bufferView":18,
			"componentType":5126,
			"count":24,
			"type":"VEC3"
		},
		{
			"bufferView":19,
			"componentType":5126,
			"count":24,
			"type":"VEC2"
		},
		{
			"bufferView":20,
			"componentType":5126,
			"count":4,
			"max":[
				1,
				0,
				1
			],
			"min":[
				-1,
				0,
				-1
			],
			"type":"VEC3"
		},
		{
			"bufferView":21,
			"componentType":5126,
			"count":4,
			"type":"VEC3"
		},
		{
			"bufferView":22,
			"componentType":5126,
			"count":4,
			"type":"VEC2"
		},
		{
			"bufferView":23,
			"componentType":5126,
			"count":4,
			"max":[
				1,
				0,
				1
			],
			"min":[
				-1,
				0,
				-1
			],
			"type":"VEC3"
		},
		{
			"bufferView":24,
			"componentType":5126,
			"count":4,
			"type":"VEC3"
		},
		{
			"bufferView":25,
			"componentType":5126,
			"count":4,
			"type":"VEC2"
		},
		{
			"bufferView":26,
			"componentType":5126,
			"count":4,
			"max":[
				1,
				0,
				1
			],
			"min":[
				-1,
				0,
				-1
			],
			"type":"VEC3"
		},
		{
			"bufferView":27,
			"componentType":5126,
			"count":4,
			"type":"VEC3"
		},
		{
			"bufferView":28,
			"componentType":5126,
			"count":4,
			"type":"VEC2"
		},
		{
			"bufferView":29,
			"componentType":5126,
			"count":24,
			"max":[
				1.5664615631103516,
				4.39408540725708,
				-20.453773498535156
			],
			"min":[
				-0.4335384964942932,
				3.807863712310791,
				-22.453773498535156
			],
			"type":"VEC3"
		},
		{
			"bufferView":30,
			"componentType":5126,
			"count":24,
			"type":"VEC3"
		},
		{
			"bufferView":31,
			"componentType":5126,
			"count":24,
			"type":"VEC2"
		},
		{
			"bufferView":32,
			"componentType":5126,
			"count":24,
			"max":[
				1.5664615631103516,
				4.440217971801758,
				-8.595163345336914
			],
			"min":[
				-0.4335384964942932,
				3.8539962768554688,
				-10.595163345336914
			],
			"type":"VEC3"
		},
		{
			"bufferView":33,
			"componentType":5126,
			"count":24,
			"type":"VEC3"
		},
		{
			"bufferView":34,
			"componentType":5126,
			"count":24,
			"type":"VEC2"
		},
		{
			"bufferView":35,
			"componentType":5126,
			"count":4,
			"max":[
				1,
				0,
				1
			],
			"min":[
				-1,
				0,
				-1
			],
			"type":"VEC3"
		},
		{
			"bufferView":36,
			"componentType":5126,
			"count":4,
			"type":"VEC3"
		},
		{
			"bufferView":37,
			"componentType":5126,
			"count":4,
			"type":"VEC2"
		},
		{
			"bufferView":38,
			"componentType":5126,
			"count":4,
			"max":[
				1,
				0,
				1
			],
			"min":[
				-1,
				0,
				-1
			],
			"type":"VEC3"
		},
		{
			"bufferView":39,
			"componentType":5126,
			"count":4,
			"type":"VEC3"
		},
		{
			"bufferView":40,
			"componentType":5126,
			"count":4,
			"type":"VEC2"
		},
		{
			"bufferView":41,
			"componentType":5126,
			"count":4,
			"max":[
				1,
				0,
				1
			],
			"min":[
				-1,
				0,
				-1
			],
			"type":"VEC3"
		},
		{
			"bufferView":42,
			"componentType":5126,
			"count":4,
			"type":"VEC3"
		},
		{
			"bufferView":43,
			"componentType":5126,
			"count":4,
			"type":"VEC2"
		},
		{
			"bufferView":44,
			"componentType":5126,
			"count":4,
			"max":[
				1,
				0,
				1
			],
			"min":[
				-1,
				0,
				-1
			],
			"type":"VEC3"
		},
		{
			"bufferView":45,
			"componentType":5126,
			"count":4,
			"type":"VEC3"
		},
		{
			"bufferView":46,
			"componentType":5126,
			"count":4,
			"type":"VEC2"
		}
	],
	"bufferViews":[
		{
			"buffer":0,
			"byteLength":48,
			"byteOffset":0,
			"target":34962
		},
		{
			"buffer":0,
			"byteLength":48,
			"byteOffset":48,
			"target":34962
		},
		{
			"buffer":0,
			"byteLength":32,
			"byteOffset":96,
			"target":34962
		},
		{
			"buffer":0,
			"byteLength":12,
			"byteOffset":128,
			"target":34963
		},
		{
			"buffer":0,
			"byteLength":288,
			"byteOffset":140,
			"target":34962
		},
		{
			"buffer":0,
			"byteLength":288,
			"byteOffset":428,
			"target":34962
		},
		{
			"buffer":0,
			"byteLength":192,
			"byteOffset":716,
			"target":34962
		},
		{
			"buffer":0,
			"byteLength":72,
			"byteOffset":908,
			"target":34963
		},
		{
			"buffer":0,
			"byteLength":288,
			"byteOffset":980,
			"target":34962
		},
		{
			"buffer":0,
			"byteLength":288,
			"byteOffset":1268,
			"target":34962
		},
		{
			"buffer":0,
			"byteLength":192,
			"byteOffset":1556,
			"target":34962
		},
		{
			"buffer":0,
			"byteLength":288,
			"byteOffset":1748,
			"target":34962
		},
		{
			"buffer":0,
			"byteLength":288,
			"byteOffset":2036,
			"target":34962
		},
		{
			"buffer":0,
			"byteLength":192,
			"byteOffset":2324,
			"target":34962
		},
		{
			"buffer":0,
			"byteLength":288,
			"byteOffset":2516,
			"target":34962
		},
		{
			"buffer":0,
			"byteLength":288,
			"byteOffset":2804,
			"target":34962
		},
		{
			"buffer":0,
			"byteLength":192,
			"byteOffset":3092,
			"target":34962
		},
		{
			"buffer":0,
			"byteLength":288,
			"byteOffset":3284,
			"target":34962
		},
		{
			"buffer":0,
			"byteLength":288,
			"byteOffset":3572,
			"target":34962
		},
		{
			"buffer":0,
			"byteLength":192,
			"byteOffset":3860,
			"target":34962
		},
		{
			"buffer":0,
			"byteLength":48,
			"byteOffset":4052,
			"target":34962
		},
		{
			"buffer":0,
			"byteLength":48,
			"byteOffset":4100,
			"target":34962
		},
		{
			"buffer":0,
			"byteLength":32,
			"byteOffset":4148,
			"target":34962
		},
		{
			"buffer":0,
			"byteLength":48,
			"byteOffset":4180,
			"target":34962
		},
		{
			"buffer":0,
			"byteLength":48,
			"byteOffset":4228,
			"target":34962
		},
		{
			"buffer":0,
			"byteLength":32,
			"byteOffset":4276,
			"target":34962
		},
		{
			"buffer":0,
			"byteLength":48,
			"byteOffset":4308,
			"target":34962
		},
		{
			"buffer":0,
			"byteLength":48,
			"byteOffset":4356,
			"target":34962
		},
		{
			"buffer":0,
			"byteLength":32,
			"byteOffset":4404,
			"target":34962
		},
		{
			"buffer":0,
			"byteLength":288,
			"byteOffset":4436,
			"target":34962
		},
		{
			"buffer":0,
			"byteLength":288,
			"byteOffset":4724,
			"target":34962
		},
		{
			"buffer":0,
			"byteLength":192,
			"byteOffset":5012,
			"target":34962
		},
		{
			"buffer":0,
			"byteLength":288,
			"byteOffset":5204,
			"target":34962
		},
		{
			"buffer":0,
			"byteLength":288,
			"byteOffset":5492,
			"target":34962
		},
		{
			"buffer":0,
			"byteLength":192,
			"byteOffset":5780,
			"target":34962
		},
		{
			"buffer":0,
			"byteLength":48,
			"byteOffset":5972,
			"target":34962
		},
		{
			"buffer":0,
			"byteLength":48,
			"byteOffset":6020,
			"target":34962
		},
		{
			"buffer":0,
			"byteLength":32,
			"byteOffset":6068,
			"target":34962
		},
		{
			"buffer":0,
			"byteLength":48,
			"byteOffset":6100,
			"target":34962
		},
		{
			"buffer":0,
			"byteLength":48,
			"byteOffset":6148,
			"target":34962
		},
		{
			"buffer":0,
			"byteLength":32,
			"byteOffset":6196,
			"target":34962
		},
		{
			"buffer":0,
			"byteLength":48,
			"byteOffset":6228,
			"target":34962
		},
		{
			"buffer":0,
			"byteLength":48,
			"byteOffset":6276,
			"target":34962
		},
		{
			"buffer":0,
			"byteLength":32,
			"byteOffset":6324,
			"target":34962
		},
		{
			"buffer":0,
			"byteLength":48,
			"byteOffset":6356,
			"target":34962
		},
		{
			"buffer":0,
			"byteLength":48,
			"byteOffset":6404,
			"target":34962
		},
		{
			"buffer":0,
			"byteLength":32,
			"byteOffset":6452,
			"target":34962
		}
	],
	"samplers":[
		{
			"magFilter":9729,
			"minFilter":9987
		}
	],
	"buffers":[
		{
			"byteLength":6484,
			"uri":"Untitled.bin"
		}
	]
}
